HIERARCHY
ROOT hip
{
	OFFSET 0.000000 0.000000 0.000000 
	CHANNELS 6 Xposition Yposition Zposition Xrotation Zrotation Yrotation
	JOINT abdomen
	{
		OFFSET 0.000000 3.402643 0.000000 
		CHANNELS 3 Xrotation Zrotation Yrotation
		JOINT chest
		{
			OFFSET 0.000000 8.438565 -0.680529 
			CHANNELS 3 Xrotation Zrotation Yrotation
			JOINT neck
			{
				OFFSET 0.000000 10.207942 -0.272212 
				CHANNELS 3 Xrotation Zrotation Yrotation
				JOINT head
				{
					OFFSET 0.000000 3.130431 0.000000 
					CHANNELS 3 Xrotation Zrotation Yrotation
					End Site
					{
						OFFSET 0.000000 3.130435 0.000000 
					}
				}
			}
			JOINT lCollar
			{
				OFFSET 3.470700 6.669187 -0.816635 
				CHANNELS 3 Yrotation Zrotation Xrotation
				JOINT lShldr
				{
					OFFSET 3.198488 0.000000 0.000000 
					CHANNELS 3 Zrotation Yrotation Xrotation
					JOINT lForeArm
					{
						OFFSET 10.139888 0.000000 0.000000 
						CHANNELS 3 Yrotation Zrotation Xrotation
						JOINT lHand
						{
							OFFSET 8.370511 0.000000 0.000000 
							CHANNELS 3 Zrotation Yrotation Xrotation
							End Site
							{
								OFFSET 4.083176 0.000000 0.000000 
							}
						}
					}
				}
			}
			JOINT rCollar
			{
				OFFSET -3.470700 6.669187 -0.816635 
				CHANNELS 3 Yrotation Zrotation Xrotation
				JOINT rShldr
				{
					OFFSET -3.198488 0.000000 0.000000 
					CHANNELS 3 Zrotation Yrotation Xrotation
					JOINT rForeArm
					{
						OFFSET -10.139888 0.000000 0.000000 
						CHANNELS 3 Yrotation Zrotation Xrotation
						JOINT rHand
						{
							OFFSET -8.370511 0.000000 0.000000 
							CHANNELS 3 Zrotation Yrotation Xrotation
							End Site
							{
								OFFSET -4.083176 0.000000 0.000000 
							}
						}
					}
				}
			}
		}
	}
	JOINT lThigh
	{
		OFFSET 5.308129 -1.633274 1.361059 
		CHANNELS 3 Xrotation Zrotation Yrotation
		JOINT lShin
		{
			OFFSET -2.041588 -20.007561 0.000000 
			CHANNELS 3 Xrotation Zrotation Yrotation
			JOINT lFoot
			{
				OFFSET 0.000000 -19.190928 -1.224953 
				CHANNELS 3 Xrotation Yrotation Zrotation
				End Site
				{
					OFFSET 0.000000 -2.449906 4.627600 
				}
			}
		}
	}
	JOINT rThigh
	{
		OFFSET -5.308129 -1.633274 1.361059 
		CHANNELS 3 Xrotation Zrotation Yrotation
		JOINT rShin
		{
			OFFSET 2.041588 -20.007561 0.000000 
			CHANNELS 3 Xrotation Zrotation Yrotation
			JOINT rFoot
			{
				OFFSET 0.000000 -19.190928 -1.224953 
				CHANNELS 3 Xrotation Yrotation Zrotation
				End Site
				{
					OFFSET 0.000000 -2.449906 4.627600 
				}
			}
		}
	}
}
MOTION
Frames: 18
Frame Time: 0.033333
-0.038857 37.693356 -0.038857 -0.491916 0.926040 -26.546646 2.031250 0.000000 -0.019531 24.394522 6.543136 -18.454575 -8.544920 -0.009766 -0.009767 19.799641 16.861872 47.851227 1.992188 -2.001953 0.000341 -7.157659 -51.153946 -30.515745 -46.276134 -0.600172 8.546262 -37.529163 -54.123917 -161.582092 -2.001953 1.992188 0.000000 -30.590269 136.110611 -90.382996 54.416676 0.529221 8.603282 13.166035 -54.087563 -39.720287 -27.568071 22.050415 15.251552 23.229174 -1.459896 -2.041651 8.029919 -6.690603 -10.462329 7.682480 -17.143955 -13.623362 22.959398 1.408462 1.989004 -22.221684 -16.168467 16.793749 
-0.206608 37.400318 -0.206608 -0.513643 0.316854 -25.674217 2.031250 0.000000 -0.019531 25.310266 4.998494 -15.862493 -8.544920 -0.009766 -0.009767 19.531359 13.719657 46.275620 1.992188 -2.001953 0.000341 -20.447874 -34.227985 -10.177824 -68.261162 -0.523254 8.754127 -45.009098 -30.623549 -132.884674 -2.001953 1.992188 0.000000 139.395050 47.322720 81.298195 55.432400 0.525391 8.606084 9.801712 -52.763290 -33.295158 -29.166960 22.379065 14.913368 25.196617 -1.387706 -2.169395 7.844228 -6.965354 -10.186732 6.304670 -17.260468 -13.536445 26.208145 1.305227 2.175310 -23.673750 -16.760019 16.589636 
-0.374355 37.107285 -0.374355 -0.548394 -0.292534 -24.805040 2.031250 0.000000 -0.019531 26.149019 3.402476 -13.304935 -8.544920 -0.009766 -0.009767 19.357187 10.560381 44.744507 1.992188 -2.001953 0.000341 -25.390198 -15.274132 3.137799 -90.247040 -0.517442 8.978801 -39.791233 -7.011962 -111.056427 -2.001953 1.992188 0.000000 128.149734 49.625587 71.713043 56.448112 0.520914 8.618204 6.779232 -51.239288 -27.198503 -30.748648 22.691351 14.590571 27.172329 -1.319583 -2.296409 7.659864 -7.237963 -9.900928 4.937357 -17.364950 -13.485907 29.445192 1.168366 2.358674 -25.133492 -17.347153 16.356276 
-0.591317 36.850079 -0.591317 -0.814335 -0.455559 -23.838720 2.685547 0.000000 -0.019531 27.115282 1.290192 -9.621516 -8.544920 -0.009766 -0.009767 19.760279 7.361579 42.948494 1.992188 -2.001953 0.000341 -28.695314 -8.846385 13.288623 -91.528717 -0.530322 8.988955 -31.309423 6.464639 -92.704720 -2.001953 1.992188 0.000000 115.347458 50.162872 59.599262 57.561398 0.518069 8.626297 3.871403 -49.359047 -20.868986 -31.952896 22.919714 14.421743 28.434078 -1.275452 -2.361376 7.802222 -7.593557 -9.589917 3.971732 -17.298872 -13.599657 32.004986 1.070641 2.512311 -26.328381 -17.946516 16.053288 
-0.808266 36.592884 -0.808266 -1.083583 -0.602855 -22.872530 3.349610 0.000000 -0.019531 27.953714 -0.883857 -5.967590 -8.544920 -0.009766 -0.009767 20.260643 4.175732 41.138805 1.992188 -2.001953 0.000341 -30.772310 -1.957398 22.936264 -92.813965 -0.524551 9.012725 -18.553957 16.312822 -71.772125 -2.001953 1.992188 0.000000 102.740082 48.965973 47.671104 58.654926 0.523748 8.644376 1.399047 -47.292130 -14.927814 -33.154373 23.144672 14.232907 29.703802 -1.231482 -2.465013 7.955378 -7.908401 -9.264149 2.996917 -17.225407 -13.702882 34.564491 0.953412 2.647394 -27.533812 -18.526533 15.734776 
-1.038651 36.378162 -1.038651 -1.359295 -0.724996 -21.876867 4.257813 0.000000 -0.019531 28.774481 -3.151934 -2.220422 -8.544920 -0.009766 -0.009767 21.394533 1.257252 39.151897 1.992188 -2.001953 0.000341 -35.259686 -0.416337 24.572836 -91.836342 -0.525371 8.998793 -15.065965 15.357872 -61.204456 -2.001953 1.992188 0.000000 91.817490 45.550995 36.264919 59.807438 0.510409 8.650010 -0.759976 -44.978359 -9.107360 -34.071789 23.310049 14.181305 30.418139 -1.192893 -2.492125 8.390913 -8.275688 -8.915098 2.314181 -17.031431 -13.970593 36.644161 0.863420 2.763089 -28.567360 -19.083788 15.354775 
-1.269026 36.163452 -1.269026 -1.636527 -0.830368 -20.871519 5.175781 0.000000 -0.019531 29.436790 -5.476647 1.500367 -8.544920 -0.009766 -0.009767 22.647501 -1.612190 37.116524 1.992188 -2.001953 0.000341 -39.695286 1.234403 26.079060 -90.857399 -0.526348 8.984956 -11.836589 13.802705 -50.786758 -2.001953 1.992188 0.000000 82.679977 40.832550 26.615332 60.949936 0.505752 8.665271 -2.504145 -42.536434 -3.639703 -34.994286 23.482134 14.117514 31.189831 -1.187643 -2.530498 8.790860 -8.652957 -8.571496 1.619425 -16.823145 -14.228679 38.723522 0.758065 2.871286 -29.613949 -19.648270 14.962690 
-1.499406 35.980057 -1.499406 -1.887891 -0.964380 -19.866266 6.064453 0.000000 -0.019531 30.055700 -7.771801 5.134794 -8.544920 -0.009766 -0.009767 24.454208 -3.961529 35.026943 1.992188 -2.001953 0.000341 -44.446976 3.059347 25.569742 -89.514244 -0.518558 8.965982 -11.368208 10.691599 -42.348175 -2.001953 1.992188 0.000000 76.597908 34.916771 18.841707 62.062950 0.509391 8.671413 -3.847857 -40.042408 1.431018 -35.662148 23.601563 14.137343 31.541906 -1.149420 -2.558022 9.311192 -9.022134 -8.252229 1.150046 -16.556118 -14.641409 40.392094 0.679885 2.965774 -30.518375 -20.154093 14.524191 
-1.729784 35.796665 -1.729784 -2.137267 -1.090485 -18.861124 6.962891 0.000000 -0.019531 30.519461 -10.107546 8.768586 -8.544920 -0.009766 -0.009767 26.342695 -6.244906 32.855488 1.992188 -2.001953 0.000341 -49.219196 4.840024 24.901718 -88.168510 -0.520664 8.953551 -11.380106 7.547373 -34.010269 -2.001953 1.992188 0.000000 71.861267 28.461205 12.326035 63.176136 0.502432 8.686879 -4.852916 -37.464046 6.222076 -36.335541 23.728020 14.160219 31.903612 -1.124704 -2.579710 9.844894 -9.403113 -7.921699 0.652791 -16.284662 -15.053168 42.060844 0.592044 3.045318 -31.418444 -20.683718 14.079674 
-1.928850 35.622204 -1.928850 -2.339742 -1.189285 -17.933804 7.792969 0.000000 -0.019531 30.907091 -12.266932 12.146409 -8.544920 -0.009766 -0.009767 28.547907 -7.874909 30.828827 1.992188 -2.001953 0.000341 -53.823536 6.631888 22.846590 -86.835579 -0.514272 8.940851 -13.447270 4.082971 -27.326012 -2.001953 1.992188 0.000000 69.593788 21.905453 7.228655 64.240318 0.503471 8.703839 -5.502011 -35.011940 10.486046 -36.853718 23.845865 14.218776 32.030483 -1.115035 -2.593332 10.409939 -9.766759 -7.622927 0.350614 -15.965689 -15.488733 43.396980 0.523665 3.123751 -32.218182 -21.119659 13.613916 
-2.127915 35.447739 -2.127915 -2.548183 -1.279408 -17.006523 8.623047 0.000000 -0.019531 31.177399 -14.446581 15.541254 -8.544920 -0.009766 -0.009767 30.830122 -9.419031 28.731604 1.992188 -2.001953 0.000341 -58.501007 8.250431 20.652512 -85.501343 -0.517846 8.926272 -15.898050 0.880604 -20.524328 -2.001953 1.992188 0.000000 68.018280 15.193257 2.597481 65.304665 0.493968 8.710659 -5.926685 -32.545971 14.586264 -37.369278 23.951149 14.258877 32.157425 -1.114984 -2.599794 10.993708 -10.140787 -7.300632 0.037484 -15.657574 -15.945442 44.695011 0.455265 3.170001 -33.016472 -21.535887 13.189862 
-2.315793 35.302364 -2.315793 -2.730074 -1.359839 -16.196222 9.355469 0.000000 -0.019531 31.378637 -16.337933 18.504835 -8.544920 -0.009766 -0.009767 33.089436 -10.341865 26.975592 1.992188 -2.001953 0.000341 -62.527061 9.522019 17.870094 -84.233528 -0.516595 8.921576 -19.372900 -1.941496 -15.007691 -2.001953 1.992188 0.000000 68.029785 9.281283 -1.041779 66.251709 0.491392 8.721800 -6.086192 -30.368002 18.006849 -37.744453 24.062952 14.337870 32.166912 -1.124282 -2.602767 11.523174 -10.465404 -7.019544 -0.156877 -15.330807 -16.410887 45.699390 0.396632 3.224237 -33.714760 -21.887190 12.749788 
-2.503665 35.156990 -2.503665 -2.916514 -1.431132 -15.395702 10.087891 0.000000 -0.019531 31.484758 -18.229811 21.486238 -8.544920 -0.009766 -0.009767 35.391193 -11.193098 25.177481 1.992188 -2.001953 0.000341 -66.622391 10.608088 14.994772 -82.972115 -0.516366 8.908383 -23.123243 -4.415186 -9.314723 -2.001953 1.992188 0.000000 68.420799 3.378185 -4.631556 67.198570 0.497954 8.732665 -6.109873 -28.184679 21.358240 -38.104923 24.159582 14.427783 32.147663 -1.114980 -2.599294 12.050555 -10.804058 -6.770034 -0.343965 -15.011299 -16.878372 46.694630 0.338140 3.257851 -34.400970 -22.213892 12.324738 
-2.642342 35.054104 -2.642342 -3.045179 -1.492271 -14.731883 10.654297 0.000000 -0.019531 31.543131 -19.714546 23.856745 -8.544920 -0.009766 -0.009767 37.332184 -11.585938 23.874722 1.992188 -2.001953 0.000341 -69.735695 11.129969 12.336595 -81.656464 -0.511958 8.896487 -26.713495 -6.201348 -4.728857 -2.001953 1.992188 0.000000 69.573898 -1.187396 -7.345048 68.018715 0.492056 8.738639 -5.996749 -26.486860 23.861799 -38.374920 24.234135 14.484526 32.118435 -1.124762 -2.590701 12.469094 -11.077172 -6.573560 -0.441476 -14.738953 -17.316446 47.406746 0.299060 3.285287 -34.935627 -22.465647 11.969101 
-2.781013 34.951218 -2.781013 -3.187350 -1.544081 -14.067815 11.220703 0.000000 -0.019531 31.533556 -21.199121 26.259825 -8.544920 -0.009766 -0.009767 39.282776 -11.934914 22.543558 1.992188 -2.001953 0.000341 -72.861549 11.502833 9.650285 -80.340309 -0.507659 8.884196 -30.454592 -7.697925 -0.019535 -2.001953 1.992188 0.000000 70.947914 -5.697521 -10.169159 68.829079 0.485529 8.744820 -5.788971 -24.790874 26.327221 -38.635963 24.299709 14.564658 32.088783 -1.124730 -2.598900 12.917814 -11.340571 -6.349848 -0.538820 -14.486454 -17.736416 48.128578 0.259989 3.312788 -35.474140 -22.708784 11.628296 
-2.879426 34.884113 -2.879426 -3.281693 -1.565790 -13.657554 11.601563 0.000000 -0.019531 31.518469 -22.167616 27.826965 -8.544920 -0.009766 -0.009767 40.600880 -12.028636 21.740078 1.992188 -2.001953 0.000341 -74.752914 11.202603 7.834198 -78.680862 -0.506930 8.861239 -32.778206 -8.483871 3.587547 -2.001953 1.992188 0.000000 72.247025 -8.558850 -11.986111 69.424423 0.494787 8.749832 -5.570155 -23.722826 27.782328 -38.850815 24.368059 14.614395 32.128136 -1.114962 -2.598293 13.171831 -11.531499 -6.219153 -0.615985 -14.313393 -18.044916 48.606419 0.230723 3.332588 -35.845547 -22.854059 11.372850 
-2.977832 34.817005 -2.977832 -3.366562 -1.587484 -13.247562 11.982422 0.000000 -0.019531 31.473768 -23.129677 29.420944 -8.544920 -0.009766 -0.009767 41.918114 -12.102112 20.934393 1.992188 -2.001953 0.000341 -76.625359 10.851665 6.023560 -77.020004 -0.506378 8.838414 -35.154480 -9.118539 7.238996 -2.001953 1.992188 0.000000 73.640678 -11.381968 -13.886914 70.019920 0.494028 8.754752 -5.337697 -22.670263 29.241877 -39.076813 24.437885 14.662235 32.157425 -1.114998 -2.599798 13.446609 -11.709170 -6.062451 -0.685768 -14.131873 -18.343798 49.084240 0.201464 3.352178 -36.227531 -23.003382 11.147270 
-3.024799 34.738735 -3.024799 -3.409378 -1.598388 -13.032537 12.216798 0.000000 -0.019531 31.462454 -23.730501 30.377983 -8.544920 -0.009766 -0.009767 42.770313 -12.166559 20.579451 1.992188 -2.001953 0.000341 -77.636681 10.016509 5.122199 -75.248505 -0.515839 8.824060 -36.244205 -9.353916 9.859886 -2.001953 1.992188 0.000000 74.640030 -13.030114 -14.977876 70.469162 0.481122 8.755841 -5.186805 -22.068922 30.007992 -39.224503 24.507629 14.665196 32.245438 -1.110485 -2.603079 13.552005 -11.806341 -5.994112 -0.772570 -14.058732 -18.491077 49.425774 0.191741 3.364024 -36.466007 -23.048708 11.021280 
